<?xml version="1.0" encoding="UTF-8" standalone="no"?>
<svg
   width="805.05652"
   height="375.49557"
   viewBox="0 0 805.05652 375.49557"
   version="1.1"
   id="svg3"
   xml:space="preserve"
   xmlns="http://www.w3.org/2000/svg"
   xmlns:svg="http://www.w3.org/2000/svg"><defs
     id="defs3" /><g
     id="g1"
     transform="matrix(1.0072255,0,0,1.0072255,-6.3639025,-14.406832)"><g
       id="text5"
       style="font-style:italic;font-weight:900;font-size:150px;font-family:Impact, 'Arial Narrow', sans-serif;letter-spacing:1;white-space:pre;inline-size:715.391;stroke-width:1.0008"
       transform="matrix(1.2235813,-0.09039985,-0.02137333,1.6243203,-30.742227,-263.78669)"
       aria-label="GETBETTER"><g
         id="g3"
         transform="matrix(0.97389617,-0.01387808,0.0229394,1.0174959,7.6326198,1.2335468)"><path
           style="fill:#ff4d15"
           d="m 93.367187,292.76105 h -30.83496 v -10.7666 c 0,-6.78711 -0.292969,-11.03516 -0.878907,-12.74414 -0.585937,-1.70899 -1.977539,-2.56348 -4.174804,-2.56348 -1.904297,0 -3.198243,0.73242 -3.881836,2.19726 -0.683594,1.46485 -1.025391,5.22461 -1.025391,11.2793 v 56.90918 c 0,5.32227 0.341797,8.83789 1.025391,10.54688 0.683593,1.66015 2.050781,2.49023 4.101562,2.49023 2.246094,0 3.759766,-0.95215 4.541016,-2.85645 0.830078,-1.90429 1.245117,-5.61523 1.245117,-11.13281 v -14.0625 h -6.225586 v -18.01758 h 36.108398 v 63.64747 H 73.958008 l -2.856446,-8.4961 c -2.099609,3.66211 -4.760742,6.4209 -7.983398,8.27637 -3.173828,1.80664 -6.933594,2.70996 -11.279297,2.70996 -5.175781,0 -10.03418,-1.24512 -14.575195,-3.73535 -4.492187,-2.53907 -7.910156,-5.66407 -10.253906,-9.375 -2.34375,-3.71094 -3.808594,-7.59278 -4.394532,-11.64551 -0.585937,-4.10156 -0.878906,-10.22949 -0.878906,-18.38379 V 291.8089 c 0,-11.32813 0.610352,-19.55567 1.831055,-24.68262 1.220703,-5.12695 4.711914,-9.81445 10.473633,-14.0625 5.810547,-4.29687 13.305664,-6.44531 22.485351,-6.44531 9.033203,0 16.528321,1.85547 22.485352,5.56641 5.957031,3.71093 9.838867,8.12988 11.645508,13.25683 1.80664,5.07813 2.70996,12.47559 2.70996,22.19238 z M 106.30566,249.1087 h 51.41602 v 23.73047 h -20.58106 v 22.48535 h 19.2627 v 22.5586 h -19.2627 v 26.07422 h 22.63184 v 23.73047 h -53.4668 z m 123.46094,0 v 23.73047 h -18.31055 v 94.84864 h -30.83496 v -94.84864 h -18.2373 V 249.1087 Z"
           id="path2" /><path
           style="fill:#f2e6d6"
           d="m 237.79785,249.1087 h 30.76172 c 9.7168,0 17.06543,0.75684 22.0459,2.27051 5.02929,1.51367 9.08203,4.58985 12.1582,9.22852 3.07617,4.58984 4.61426,12.01171 4.61426,22.26562 0,6.93359 -1.09863,11.76758 -3.2959,14.50196 -2.14844,2.73437 -6.4209,4.83398 -12.81738,6.29882 7.12891,1.61133 11.96289,4.29688 14.50195,8.05664 2.53907,3.71094 3.8086,9.42383 3.8086,17.13868 v 10.98632 c 0,8.00781 -0.92774,13.94043 -2.78321,17.79786 -1.80664,3.85742 -4.71191,6.49414 -8.71582,7.91015 -4.00391,1.41602 -12.20703,2.12403 -24.60937,2.12403 h -35.66895 z m 30.83496,20.28809 v 26.36719 c 1.31836,-0.0489 2.34375,-0.0733 3.07617,-0.0733 3.02735,0 4.95606,-0.73242 5.78614,-2.19726 0.83007,-1.51367 1.24511,-5.78613 1.24511,-12.81738 0,-3.71094 -0.3418,-6.29883 -1.02539,-7.76368 -0.68359,-1.51367 -1.58691,-2.46581 -2.70996,-2.85644 -1.07422,-0.39063 -3.19824,-0.61035 -6.37207,-0.65918 z m 0,44.82422 v 33.17871 c 4.34571,-0.14649 7.1045,-0.83008 8.27637,-2.05078 1.2207,-1.22071 1.83105,-4.22364 1.83105,-9.00879 v -11.05957 c 0,-5.07813 -0.53711,-8.1543 -1.61132,-9.22852 -1.07422,-1.07422 -3.90625,-1.68457 -8.4961,-1.83105 z m 53.00196,-65.11231 h 51.41601 v 23.73047 h -20.58105 v 22.48535 h 19.26269 v 22.5586 h -19.26269 v 26.07422 h 22.63183 v 23.73047 h -53.46679 z m 123.46093,0 v 23.73047 h -18.31054 v 94.84864 H 395.9502 V 272.83917 H 377.71289 V 249.1087 Z m 70.14063,0 v 23.73047 h -18.31055 v 94.84864 h -30.83496 v -94.84864 h -18.2373 V 249.1087 Z m 8.03125,0 h 51.41601 v 23.73047 h -20.58105 v 22.48535 h 19.26269 v 22.5586 h -19.26269 v 26.07422 h 22.63183 v 23.73047 h -53.46679 z m 63.3291,0 h 21.82617 c 14.55078,0 24.38965,0.56152 29.5166,1.68457 5.17578,1.12305 9.375,4.00391 12.59766,8.64258 3.27149,4.58985 4.90723,11.93848 4.90723,22.0459 0,9.22851 -1.14746,15.42969 -3.44239,18.60352 -2.29492,3.17383 -6.81152,5.07812 -13.5498,5.71289 6.10351,1.51367 10.20508,3.54003 12.30469,6.0791 2.09961,2.53906 3.39355,4.88281 3.88183,7.03125 0.53711,2.09961 0.80567,7.93457 0.80567,17.50488 v 31.27442 h -28.6377 v -39.4043 c 0,-6.34766 -0.5127,-10.27832 -1.53809,-11.79199 -0.97656,-1.51367 -3.58886,-2.27051 -7.83691,-2.27051 v 53.4668 h -30.83496 z m 30.83496,20.28809 v 26.36719 c 3.4668,0 5.88379,-0.46387 7.25098,-1.3916 1.41601,-0.97657 2.12402,-4.07715 2.12402,-9.30176 v -6.51856 c 0,-3.75977 -0.68359,-6.22559 -2.05078,-7.39746 -1.31836,-1.17187 -3.75977,-1.75781 -7.32422,-1.75781 z"
           id="path3" /></g></g><path
       d="M 16.20331,365.74814 772.31137,291.71772 16.073197,348.72916 Z"
       fill="#ff4d15"
       id="path5"
       style="stroke-width:1.20624" /><path
       d="M 16.937491,387.10537 367.44226,346.02364 16.287576,371.67473 Z"
       fill="#ff4d15"
       id="path6"
       style="stroke-width:2.15557" /><path
       d="M 411.40884,82.568585 760.10699,40.958863 757.97956,14.303482 805.59961,44.992158 762.78197,82.360482 760.79537,58.181267 412.33666,91.254327 259.96379,105.68789 Z"
       fill="#ff4d15"
       id="path7"
       style="stroke-width:1.02241" /></g></svg>
