<svg xmlns="http://www.w3.org/2000/svg" xmlns:xlink="http://www.w3.org/1999/xlink" xmlns:inkscape="http://www.inkscape.org/namespaces/inkscape" version="1.1" width="382" height="83" viewBox="0 0 382 83">
<defs>
<clipPath id="clip_1">
<path transform="matrix(1,0,0,-1,-115,725)" d="M115 642H497V725H115Z"/>
</clipPath>
<clipPath id="clip_2">
<path transform="matrix(1,0,0,-1,-115,725)" d="M0 0H612V792H0Z"/>
</clipPath>
<clipPath id="clip_3">
<path transform="matrix(.63695,0,0,-.63695,3.7990037,77.791019)" d="M0 0H587.8263V114.28116H0Z"/>
</clipPath>
<clipPath id="clip_4">
<path transform="matrix(.63695,0,0,.63695,3.7990037,4.999626)" d="M0 0H588V115H0Z"/>
</clipPath>
<clipPath id="clip_5">
<path transform="matrix(.63695,0,0,.63695,3.7990037,4.999626)" d="M0 0H588V115H0Z"/>
</clipPath>
<clipPath id="clip_6">
<path transform="matrix(.63695,0,0,.63695,3.7990037,4.999626)" d="M0 0H588V115H0Z"/>
</clipPath>
<clipPath id="clip_7">
<path transform="matrix(.63695,0,0,.63695,3.7990037,4.999626)" d="M0 0H588V115H0Z"/>
</clipPath>
<clipPath id="clip_8">
<path transform="matrix(.63695,0,0,.63695,3.7990037,4.999626)" d="M0 0H588V115H0Z"/>
</clipPath>
<clipPath id="clip_9">
<path transform="matrix(.63695,0,0,.63695,3.7990037,4.999626)" d="M0 0H588V115H0Z"/>
</clipPath>
<clipPath id="clip_10">
<path transform="matrix(.63695,0,0,.63695,3.7990037,4.999626)" d="M0 0H588V115H0Z"/>
</clipPath>
<clipPath id="clip_11">
<path transform="matrix(.63695,0,0,.63695,3.7990037,4.999626)" d="M0 0H588V115H0Z"/>
</clipPath>
<clipPath id="clip_12">
<path transform="matrix(.63695,0,0,.63695,3.7990037,4.999626)" d="M0 0H588V115H0Z"/>
</clipPath>
<clipPath id="clip_13">
<path transform="matrix(.63695,0,0,.63695,3.7990037,4.999626)" d="M0 0H588V115H0Z"/>
</clipPath>
<clipPath id="clip_14">
<path transform="matrix(.63695,0,0,.63695,3.7990037,4.999626)" d="M0 0H588V115H0Z"/>
</clipPath>
<clipPath id="clip_15">
<path transform="matrix(.63695,0,0,.63695,3.7990037,4.999626)" d="M0 0H588V115H0Z"/>
</clipPath>
<clipPath id="clip_16">
<path transform="matrix(.63695,0,0,.63695,3.7990037,4.999626)" d="M0 0H588V115H0Z"/>
</clipPath>
<clipPath id="clip_17">
<path transform="matrix(.63695,0,0,.63695,3.7990037,4.999626)" d="M0 0H588V115H0Z"/>
</clipPath>
<clipPath id="clip_18">
<path transform="matrix(.63695,0,0,.63695,3.7990037,4.999626)" d="M0 0H588V115H0Z"/>
</clipPath>
<clipPath id="clip_19">
<path transform="matrix(.63695,0,0,.63695,3.7990037,4.999626)" d="M0 0H588V115H0Z"/>
</clipPath>
<clipPath id="clip_20">
<path transform="matrix(.63695,0,0,.63695,3.7990037,4.999626)" d="M0 0H588V115H0Z"/>
</clipPath>
<clipPath id="clip_21">
<path transform="matrix(.63695,0,0,.63695,3.7990037,4.999626)" d="M0 0H588V115H0Z"/>
</clipPath>
<clipPath id="clip_22">
<path transform="matrix(.63695,0,0,.63695,3.7990037,4.999626)" d="M0 0H588V115H0Z"/>
</clipPath>
<clipPath id="clip_23">
<path transform="matrix(.63695,0,0,.63695,3.7990037,4.999626)" d="M0 0H588V115H0Z"/>
</clipPath>
<clipPath id="clip_24">
<path transform="matrix(.63695,0,0,.63695,3.7990037,4.999626)" d="M0 0H588V115H0Z"/>
</clipPath>
<clipPath id="clip_25">
<path transform="matrix(.63695,0,0,.63695,3.7990037,4.999626)" d="M0 0H588V115H0Z"/>
</clipPath>
<clipPath id="clip_26">
<path transform="matrix(.63695,0,0,.63695,3.7990037,4.999626)" d="M0 0H588V115H0Z"/>
</clipPath>
<clipPath id="clip_27">
<path transform="matrix(.63695,0,0,.63695,3.7990037,4.999626)" d="M0 0H588V115H0Z"/>
</clipPath>
<clipPath id="clip_28">
<path transform="matrix(.63695,0,0,.63695,3.7990037,4.999626)" d="M0 0H588V115H0Z"/>
</clipPath>
<clipPath id="clip_29">
<path transform="matrix(.63695,0,0,.63695,3.7990037,4.999626)" d="M0 0H588V115H0Z"/>
</clipPath>
<clipPath id="clip_30">
<path transform="matrix(.63695,0,0,.63695,3.7990037,4.999626)" d="M0 0H588V115H0Z"/>
</clipPath>
<clipPath id="clip_31">
<path transform="matrix(.63695,0,0,.63695,3.7990037,4.999626)" d="M0 0H588V115H0Z"/>
</clipPath>
<clipPath id="clip_32">
<path transform="matrix(.63695,0,0,.63695,3.7990037,4.999626)" d="M0 0H588V115H0Z"/>
</clipPath>
<path id="font_33_1" d="M.12402344 .08300781H.28515626V.63964846L.10986328 .6044922V.69433596L.2841797 .7294922H.3828125V.08300781H.5439453V0H.12402344V.08300781Z"/>
<path id="font_33_2" d="M.19189453 .08300781H.5361328V0H.07324219V.08300781C.110677089 .12174479 .16170247 .17374675 .22631836 .23901367 .29093424 .3042806 .33154298 .34635417 .34814454 .36523438 .37972007 .40071617 .40177409 .43074546 .41430665 .45532228 .4268392 .47989909 .43310548 .50406906 .43310548 .52783206 .43310548 .56656906 .41951499 .59814456 .39233399 .6225586 .36515299 .64697268 .3297526 .6591797 .2861328 .6591797 .25520835 .6591797 .22257488 .6537679 .18823242 .64294436 .15388997 .6321208 .1171875 .61572268 .078125 .59375V.6933594C.11783854 .70947268 .15494792 .721639 .18945313 .7298584 .22395833 .7380778 .25553385 .7421875 .2841797 .7421875 .35970054 .7421875 .41992188 .7233073 .46484376 .6855469 .5097656 .64778646 .53222659 .59733077 .53222659 .5341797 .53222659 .50423178 .5266113 .47583009 .51538088 .4489746 .5041504 .42211915 .48372398 .39046226 .45410157 .3540039 .44596354 .3445638 .42008464 .31730143 .37646485 .2722168 .33284507 .22713216 .27132163 .1640625 .19189453 .08300781Z"/>
<path id="font_33_3" d="M.40576173 .3935547C.45296226 .3834432 .48982749 .36239625 .5163574 .33041383 .5428874 .29844157 .55615237 .258962 .55615237 .2119751 .55615237 .13986206 .5314128 .08406067 .4819336 .044570924 .43245445 .005091349 .36214195-.0146484379 .2709961-.0146484379 .24039714-.0146484379 .208903-.01163737 .17651367-.0056152346 .14412435 .00040690104 .110677089 .0094401049 .076171878 .021484375V.1171875C.103515628 .10107422 .13346355 .088907878 .16601563 .08068848 .1985677 .07246908 .23258464 .068359378 .2680664 .068359378 .32991538 .068359378 .37703453 .080607097 .40942384 .10510254 .44181315 .12960816 .4580078 .16521709 .4580078 .21192932 .4580078 .2550405 .44295249 .28876243 .4128418 .3130951 .3827311 .33743797 .3408203 .34960938 .28710938 .34960938H.20214844V.43066407H.29101563C.33951823 .43066407 .3766276 .44032798 .40234376 .45965577 .4280599 .47898356 .44091798 .50683596 .44091798 .5432129 .44091798 .5805664 .42765299 .6092326 .40112306 .6292114 .3745931 .64919027 .33658854 .6591797 .28710938 .6591797 .26009117 .6591797 .2311198 .65625 .20019531 .6503906 .16927083 .64453127 .1352539 .6354167 .09814453 .6230469V.7109375C.13557942 .7213542 .1706543 .7291667 .20336914 .734375 .23608399 .7395833 .2669271 .7421875 .29589845 .7421875 .37076823 .7421875 .43001304 .7251994 .4736328 .69122317 .5172526 .6572571 .5390625 .6113434 .5390625 .55348208 .5390625 .5131785 .52750656 .47913108 .50439456 .45133973 .48128257 .42354838 .44840495 .4042867 .40576173 .3935547Z"/>
<path id="font_33_4" d="M.3779297 .64346316 .12890625 .25390626H.3779297V.64346316M.35205079 .7294922H.47607423V.25390626H.5800781V.171875H.47607423V0H.3779297V.171875H.048828126V.26716615L.35205079 .7294922Z"/>
<path id="font_33_5" d="M.107910159 .7294922H.4951172V.6464844H.19824219V.46777345C.21256511 .47265626 .22688802 .47631837 .24121094 .47875978 .25553385 .48120118 .26985679 .48242188 .2841797 .48242188 .3655599 .48242188 .43001304 .4600779 .47753907 .41539 .5250651 .37071229 .5488281 .31021119 .5488281 .23388672 .5488281 .15528362 .52441409 .09420776 .47558595 .05065918 .4267578 .007120768 .35791017-.0146484379 .26904298-.0146484379 .23844402-.0146484379 .20727539-.0120442709 .17553711-.0068359377 .14379883-.0016276041 .1110026 .006184896 .07714844 .016601563V.11621094C.10644531 .100097659 .13671875 .08809408 .16796875 .080200199 .19921875 .07230631 .23225911 .068359378 .26708985 .068359378 .32340495 .068359378 .3680013 .083211269 .4008789 .11291504 .4337565 .14262899 .4501953 .18295288 .4501953 .23388672 .4501953 .28482057 .4337565 .32513938 .4008789 .35484315 .3680013 .3845571 .32340495 .39941407 .26708985 .39941407 .24072266 .39941407 .21443685 .39648438 .18823242 .390625 .162028 .38476563 .1352539 .37565104 .107910159 .36328126V.7294922Z"/>
<path id="font_33_6" d="M.33007813 .4033203C.28580729 .4033203 .25073243 .3881836 .22485352 .35791017 .19897461 .32763673 .18603516 .2861328 .18603516 .23339844 .18603516 .18098958 .19897461 .13956706 .22485352 .10913086 .25073243 .078694667 .28580729 .06347656 .33007813 .06347656 .37434898 .06347656 .40942384 .078694667 .43530274 .10913086 .46118165 .13956706 .4741211 .18098958 .4741211 .23339844 .4741211 .2861328 .46118165 .32763673 .43530274 .35791017 .40942384 .3881836 .37434898 .4033203 .33007813 .4033203M.5258789 .7128906V.6230469C.50113937 .6347656 .4761556 .64371749 .45092774 .64990237 .42569987 .6560872 .40071617 .6591797 .37597657 .6591797 .3108724 .6591797 .26114909 .6371663 .22680664 .59313967 .19246419 .549113 .17285156 .48258464 .16796875 .3935547 .18717449 .421875 .21126302 .44360353 .24023438 .45874024 .26920573 .47387696 .30110679 .4814453 .3359375 .4814453 .4091797 .4814453 .46704103 .45922853 .5095215 .41479493 .55200198 .37036134 .5732422 .30989585 .5732422 .23339844 .5732422 .15852864 .55110678 .098470058 .50683596 .053222658 .4625651 .007975261 .40364585-.0146484379 .33007813-.0146484379 .24576824-.0146484379 .18131511 .01767985 .13671875 .082336429 .0921224 .146993 .06982422 .24072266 .06982422 .3635254 .06982422 .47883097 .09716797 .5707652 .15185547 .639328 .20654297 .707901 .2799479 .7421875 .3720703 .7421875 .3968099 .7421875 .4217936 .7397461 .44702149 .7348633 .47224937 .72998049 .49853517 .72265627 .5258789 .7128906Z"/>
<path id="font_33_7" d="M.08203125 .7294922H.55078127V.6874695L.2861328 0H.18310547L.4321289 .6464844H.08203125V.7294922Z"/>
<path id="font_33_8" d="M.3178711 .34570313C.2709961 .34570313 .23413086 .33317057 .20727539 .30810548 .18041992 .28304038 .16699219 .24853516 .16699219 .20458985 .16699219 .16064453 .18041992 .12613933 .20727539 .10107422 .23413086 .07600912 .2709961 .06347656 .3178711 .06347656 .3647461 .06347656 .40169273 .07609049 .42871095 .10131836 .45572917 .12654622 .46923829 .16097005 .46923829 .20458985 .46923829 .24853516 .45581056 .28304038 .42895509 .30810548 .4020996 .33317057 .36507163 .34570313 .3178711 .34570313M.21923828 .3879547C.17692058 .39838157 .1439616 .41808573 .12036133 .44706727 .09676107 .47605897 .08496094 .5114034 .08496094 .5531006 .08496094 .6114095 .10571289 .6575012 .1472168 .69137576 .1887207 .72525027 .24560547 .7421875 .3178711 .7421875 .39046226 .7421875 .44742839 .72525027 .48876954 .69137576 .53011068 .6575012 .55078127 .6114095 .55078127 .5531006 .55078127 .5114034 .53898116 .47605897 .51538088 .44706727 .4917806 .41808573 .45898438 .39838157 .4169922 .3879547 .46451823 .37687684 .5015462 .35521446 .5280762 .32296754 .55460616 .2907206 .5678711 .25130717 .5678711 .20472718 .5678711 .13404846 .54630538 .07981364 .5031738 .042022706 .46004234 .0042419435 .39827476-.0146484379 .3178711-.0146484379 .23746746-.0146484379 .17569988 .0042419435 .13256836 .042022706 .08943685 .07981364 .067871097 .13404846 .067871097 .20472718 .067871097 .25130717 .081217449 .2907206 .107910159 .32296754 .13460286 .35521446 .17171224 .37687684 .21923828 .3879547M.18310547 .5439453C.18310547 .5061849 .1949056 .47672526 .21850586 .4555664 .24210613 .43440757 .27522788 .42382813 .3178711 .42382813 .3601888 .42382813 .39331056 .43440757 .41723634 .4555664 .4411621 .47672526 .453125 .5061849 .453125 .5439453 .453125 .58170577 .4411621 .61116537 .41723634 .6323242 .39331056 .6534831 .3601888 .6640625 .3178711 .6640625 .27522788 .6640625 .24210613 .6534831 .21850586 .6323242 .1949056 .61116537 .18310547 .58170577 .18310547 .5439453Z"/>
<path id="font_33_9" d="M.10986328 .0146484379V.10449219C.13460286 .09277344 .15966797 .08382162 .1850586 .07763672 .21044922 .07145182 .23535156 .068359378 .25976563 .068359378 .32486979 .068359378 .3745931 .09029134 .40893556 .13415528 .44327799 .17801921 .46289063 .2446289 .46777345 .33398438 .44889323 .3059896 .42496745 .28450523 .3959961 .26953126 .36702476 .25455729 .33496095 .24707031 .2998047 .24707031 .22688802 .24707031 .16918946 .26912437 .12670899 .31323243 .084228519 .35734049 .06298828 .41764323 .06298828 .49414063 .06298828 .56901046 .085123699 .62906906 .12939453 .6743164 .17366536 .7195638 .23258464 .7421875 .30615235 .7421875 .39046226 .7421875 .45483399 .7098592 .49926759 .64520266 .5437012 .5805461 .56591799 .48665367 .56591799 .3635254 .56591799 .24854534 .5386556 .1567688 .48413087 .0881958 .4296061 .019632975 .35628257-.0146484379 .26416017-.0146484379 .23942058-.0146484379 .21435547-.012207031 .18896485-.0073242189 .16357422-.0024414063 .13720703 .0048828127 .10986328 .0146484379M.30615235 .32421876C.3504232 .32421876 .38549806 .33935548 .41137696 .3696289 .43725587 .39990235 .4501953 .44140626 .4501953 .49414063 .4501953 .5465495 .43725587 .587972 .41137696 .6184082 .38549806 .6488444 .3504232 .6640625 .30615235 .6640625 .2618815 .6640625 .22680664 .6488444 .20092774 .6184082 .17504883 .587972 .16210938 .5465495 .16210938 .49414063 .16210938 .44140626 .17504883 .39990235 .20092774 .3696289 .22680664 .33935548 .2618815 .32421876 .30615235 .32421876Z"/>
<path id="font_33_10" d="M.18310547 .70214846V.546875H.36816407V.4765625H.18310547V.18005371C.18310547 .13550823 .18920899 .106892909 .20141602 .09420776 .21362305 .0815328 .23844402 .07519531 .2758789 .07519531H.36816407V0H.2758789C.20654297 0 .1586914 .01292928 .13232422 .03878784 .10595703 .06465658 .09277344 .1117452 .09277344 .18005371V.4765625H.026855469V.546875H.09277344V.70214846H.18310547Z"/>
<path id="font_33_11" d="M.048828126 .31445313H.31201173V.234375H.048828126V.31445313Z"/>
<path id="font_33_12" d="M.09814453 .7294922H.19677735V.08300781H.5517578V0H.09814453V.7294922Z"/>
<path id="font_33_13" d="M.5620117 .29589845V.25195313H.14892578C.15283203 .1899414 .1714681 .1427002 .20483399 .11022949 .23819988 .07775879 .28466798 .061523439 .34423829 .061523439 .3787435 .061523439 .41219078 .06575521 .44458009 .07421875 .4769694 .08268229 .50911459 .0953776 .5410156 .11230469V.02734375C.50878909 .013671875 .4757487 .0032552083 .44189454-.00390625 .40804038-.011067708 .3736979-.0146484379 .3388672-.0146484379 .2516276-.0146484379 .18253581 .010782878 .1315918 .061645509 .08064779 .11251831 .05517578 .18132019 .05517578 .26805116 .05517578 .35772196 .0793457 .42888896 .12768555 .48155213 .17602539 .5342153 .24121094 .5605469 .3232422 .5605469 .3968099 .5605469 .45499674 .53681948 .49780274 .48936463 .5406087 .44191996 .5620117 .37743125 .5620117 .29589845M.47216798 .32226563C.47151695 .37157188 .45776368 .4109141 .4309082 .44029237 .40405274 .4696808 .3684896 .484375 .32421876 .484375 .27408854 .484375 .2339681 .47016908 .20385742 .4417572 .17374675 .4133555 .15641277 .3733622 .15185547 .32177735L.47216798 .32226563Z"/>
<path id="font_33_14" d="M.09814453 .7294922H.23095703L.5541992 .11921692V.7294922H.64990237V0H.51708987L.19384766 .61027529V0H.09814453V.7294922Z"/>
<path id="font_33_15" d="M.09814453 .7294922H.24511719L.43115235 .23339844 .61816409 .7294922H.7651367V0H.6689453V.640625L.48095704 .140625H.38183595L.19384766 .640625V0H.09814453V.7294922Z"/>
<path id="font_33_16" d="M.64404299 .67285159V.5683594C.61083987 .5994466 .57543948 .62268069 .5378418 .6380615 .50024417 .6534424 .46028648 .6611328 .41796876 .6611328 .3346354 .6611328 .27083335 .63564047 .2265625 .58465579 .18229167 .5336711 .16015625 .45996095 .16015625 .3635254 .16015625 .26741538 .18229167 .193868 .2265625 .1428833 .27083335 .0918986 .3346354 .06640625 .41796876 .06640625 .46028648 .06640625 .50024417 .07409668 .5378418 .08947754 .57543948 .1048584 .61083987 .12809246 .64404299 .15917969V.055664064C.6095378 .032226564 .57299807 .0146484379 .5344238 .0029296876 .4958496-.0087890629 .45507813-.0146484379 .41210938-.0146484379 .3017578-.0146484379 .21484375 .019144694 .15136719 .08673096 .087890628 .1543274 .056152345 .24659221 .056152345 .3635254 .056152345 .4807841 .087890628 .5732066 .15136719 .64079287 .21484375 .7083893 .3017578 .7421875 .41210938 .7421875 .45572917 .7421875 .49682618 .7364095 .5354004 .7248535 .5739746 .71329757 .6101888 .69596359 .64404299 .67285159Z"/>
<path id="font_33_17" d="M.19677735 .6484375V.08105469H.31591798C.4165039 .08105469 .49015299 .10386149 .53686526 .1494751 .58357748 .1950887 .6069336 .26708985 .6069336 .36547853 .6069336 .46321617 .58357748 .53481039 .53686526 .58026126 .49015299 .6257121 .4165039 .6484375 .31591798 .6484375H.19677735M.09814453 .7294922H.30078126C.44205729 .7294922 .54573568 .70009359 .6118164 .6412964 .67789718 .5824992 .7109375 .4905599 .7109375 .36547853 .7109375 .2397461 .6777344 .1473999 .6113281 .08843994 .5449219 .02947998 .44140626 0 .30078126 0H.09814453V.7294922Z"/>
<path id="font_33_18" d="M-.0029296876 .7294922H.61376956V.6464844H.35498048V0H.25585938V.6464844H-.0029296876V.7294922Z"/>
<path id="font_33_19" d="M.033203126 .7294922H.1328125L.2861328 .11286926 .43896485 .7294922H.5498047L.703125 .11286926 .85595706 .7294922H.9560547L.7729492 0H.6489258L.4951172 .63323977 .33984376 0H.21582031L.033203126 .7294922Z"/>
<path id="font_33_20" d="M.09814453 .7294922H.19677735V0H.09814453V.7294922Z"/>
<path id="font_33_21" d="M.09814453 .7294922H.55908206V.6464844H.19677735V.43066407H.5439453V.34765626H.19677735V.08300781H.5678711V0H.09814453V.7294922Z"/>
<path id="font_33_22" d="M.53515627 .7050781V.60839846C.49772135 .62646487 .46240235 .6399333 .42919923 .6488037 .3959961 .65767416 .36393229 .6621094 .3330078 .6621094 .27929688 .6621094 .23787435 .6516774 .20874024 .6308136 .17960613 .6099599 .16503906 .58030197 .16503906 .5418396 .16503906 .5095723 .17472331 .48520408 .1940918 .46873475 .21346028 .4522756 .25016276 .43899537 .30419923 .42889405L.36376954 .41670228C.43733726 .4026947 .49161784 .37802125 .5266113 .34268189 .5616048 .3073527 .57910159 .26005046 .57910159 .20077515 .57910159 .13010662 .5554199 .076533 .50805667 .04005432 .46069337 .0035858155 .39127604-.0146484379 .2998047-.0146484379 .26529948-.0146484379 .228597-.010701497 .18969727-.0028076173 .15079753 .005086263 .11051432 .016764323 .068847659 .032226564V.13378906C.10888672 .11116537 .14811199 .09411621 .18652344 .0826416 .22493489 .07116699 .2626953 .06542969 .2998047 .06542969 .35611979 .06542969 .3995768 .07650757 .43017579 .09866333 .46077476 .12082926 .47607423 .15244039 .47607423 .1934967 .47607423 .22934468 .4650879 .25737 .44311524 .27757264 .42114259 .29778544 .38509117 .3129425 .33496095 .32304383L.27490235 .3347473C.20133464 .3494059 .14811199 .37236534 .115234378 .4036255 .08235677 .43489585 .06591797 .4783783 .06591797 .5340729 .06591797 .5985565 .08862305 .6493632 .1340332 .6864929 .17944336 .7236226 .24202474 .7421875 .32177735 .7421875 .35595704 .7421875 .39078776 .73909506 .42626954 .73291018 .4617513 .7267253 .49804688 .71744796 .53515627 .7050781Z"/>
<path id="font_33_23" d="M.09423828 .546875H.18408203V0H.09423828V.546875M.09423828 .7597656H.18408203V.6455078H.09423828V.7597656Z"/>
<path id="font_33_24" d="M.52001956 .44189454C.54248049 .48242188 .56933596 .5123291 .60058596 .5316162 .63183596 .5509033 .6686198 .5605469 .7109375 .5605469 .7679036 .5605469 .81184896 .5405629 .84277346 .5005951 .87369796 .46063743 .88916018 .40379844 .88916018 .33007813V0H.7988281V.32714845C.7988281 .37972007 .7895508 .41874186 .7709961 .44421388 .7524414 .46968589 .7241211 .48242188 .68603518 .48242188 .63948568 .48242188 .60270187 .46691386 .5756836 .43589784 .54866537 .40489198 .53515627 .36262004 .53515627 .30908204V0H.44482423V.32714845C.44482423 .38004557 .43554688 .41914878 .4169922 .444458 .3984375 .46976725 .36979167 .48242188 .3310547 .48242188 .28515626 .48242188 .24869792 .4668325 .22167969 .4356537 .19466146 .40448509 .18115235 .36229453 .18115235 .30908204V0H.09082031V.546875H.18115235V.46191407C.20166016 .49560548 .22623699 .5204671 .2548828 .536499 .28352867 .55253097 .31754557 .5605469 .3569336 .5605469 .39664714 .5605469 .43041993 .55041506 .45825196 .53015139 .48608399 .5098877 .50667318 .48046876 .52001956 .44189454Z"/>
<path id="font_33_25" d="M.19677735 .6484375V.37402345H.32080079C.36669923 .37402345 .402181 .3859253 .4272461 .409729 .4523112 .4335327 .46484376 .4674479 .46484376 .5114746 .46484376 .5551758 .4523112 .5889282 .4272461 .61273196 .402181 .63653567 .36669923 .6484375 .32080079 .6484375H.19677735M.09814453 .7294922H.32080079C.4025065 .7294922 .46427409 .71099856 .5061035 .67401126 .5479329 .6370239 .56884768 .58284506 .56884768 .5114746 .56884768 .43945313 .5479329 .38503013 .5061035 .34820558 .46427409 .311381 .4025065 .29296876 .32080079 .29296876H.19677735V0H.09814453V.7294922Z"/>
<path id="font_33_26" d="M.5488281 .33007813V0H.45898438V.32714845C.45898438 .379069 .44889323 .41792808 .42871095 .4437256 .40852867 .4695231 .37825523 .48242188 .33789063 .48242188 .28938804 .48242188 .2511393 .46691386 .22314453 .43589784 .19514974 .40489198 .18115235 .36262004 .18115235 .30908204V0H.09082031V.546875H.18115235V.46191407C.20263672 .49495445 .22794597 .5196533 .25708009 .53601077 .2862142 .55236819 .31982423 .5605469 .35791017 .5605469 .4207357 .5605469 .46826173 .54105636 .5004883 .5020752 .53271487 .4630941 .5488281 .40576173 .5488281 .33007813Z"/>
<path id="font_33_27" d="M.48779298 .5263672V.4423828C.46240235 .45638023 .43693034 .46687828 .41137696 .47387696 .38582359 .48087565 .36002604 .484375 .33398438 .484375 .27571617 .484375 .23046875 .46585594 .19824219 .42881776 .16601563 .39178977 .14990235 .3398336 .14990235 .27294923 .14990235 .20606487 .16601563 .15410359 .19824219 .11706543 .23046875 .08003744 .27571617 .061523439 .33398438 .061523439 .36002604 .061523439 .38582359 .06502279 .41137696 .072021488 .43693034 .07902018 .46240235 .08951823 .48779298 .103515628V.020507813C.46272788 .0087890629 .43676759 0 .4099121-.005859375 .38305665-.01171875 .3544922-.0146484379 .32421876-.0146484379 .24186199-.0146484379 .1764323 .011271159 .12792969 .06311035 .079427089 .11495972 .05517578 .184906 .05517578 .27294923 .05517578 .36229453 .07967123 .43256126 .12866211 .4837494 .177653 .5349477 .24479167 .5605469 .33007813 .5605469 .3577474 .5605469 .38476563 .55769857 .4111328 .55200198 .4375 .54630538 .46305339 .53776046 .48779298 .5263672Z"/>
<path id="font_33_28" d="M.30615235 .484375C.25797526 .484375 .21988933 .4655304 .19189453 .4278412 .16389974 .39016215 .14990235 .3385315 .14990235 .27294923 .14990235 .20736695 .16381836 .1557312 .19165039 .11804199 .21948242 .08036295 .25764976 .061523439 .30615235 .061523439 .3540039 .061523439 .3919271 .080444339 .41992188 .11828613 .44791667 .1561381 .46191407 .20769246 .46191407 .27294923 .46191407 .33788047 .44791667 .38934837 .41992188 .4273529 .3919271 .46536765 .3540039 .484375 .30615235 .484375M.30615235 .5605469C.38427735 .5605469 .44563804 .5351105 .49023438 .48423768 .53483077 .43337504 .5571289 .36294557 .5571289 .27294923 .5571289 .1832784 .53483077 .11292521 .49023438 .06188965 .44563804 .010864258 .38427735-.0146484379 .30615235-.0146484379 .22770183-.0146484379 .16625977 .010864258 .12182617 .06188965 .07739258 .11292521 .05517578 .1832784 .05517578 .27294923 .05517578 .36294557 .07739258 .43337504 .12182617 .48423768 .16625977 .5351105 .22770183 .5605469 .30615235 .5605469Z"/>
<path id="font_33_29" d="M.45410157 .4638672V.7597656H.5439453V0H.45410157V.08203125C.43522135 .049316408 .41137696 .025024414 .38256837 .009155273 .35375978-.006713867 .3191732-.0146484379 .2788086-.0146484379 .21272786-.0146484379 .15893555 .011764526 .11743164 .064590457 .075927738 .11741638 .05517578 .18686931 .05517578 .27294923 .05517578 .35902915 .075927738 .42848207 .11743164 .48130799 .15893555 .5341339 .21272786 .5605469 .2788086 .5605469 .3191732 .5605469 .35375978 .5526123 .38256837 .53674319 .41137696 .520874 .43522135 .49658204 .45410157 .4638672M.14794922 .27294923C.14794922 .2067159 .16153972 .15475464 .1887207 .11706543 .21590169 .07938639 .25325523 .060546876 .30078126 .060546876 .34830729 .060546876 .3857422 .07938639 .41308595 .11706543 .4404297 .15475464 .45410157 .2067159 .45410157 .27294923 .45410157 .33918254 .4404297 .3911387 .41308595 .42881776 .3857422 .46650697 .34830729 .48535157 .30078126 .48535157 .25325523 .48535157 .21590169 .46650697 .1887207 .42881776 .16153972 .3911387 .14794922 .33918254 .14794922 .27294923Z"/>
<path id="font_33_30" d="M.4111328 .46289063C.40104167 .46891276 .39005534 .473348 .37817384 .4761963 .36629234 .4790446 .3531901 .48046876 .3388672 .48046876 .28808595 .48046876 .24910482 .4639028 .22192383 .43077088 .19474285 .39764915 .18115235 .3500875 .18115235 .28808595V0H.09082031V.546875H.18115235V.46191407C.20003255 .49527995 .22460938 .52006027 .2548828 .5362549 .28515626 .5524495 .3219401 .5605469 .36523438 .5605469 .37141929 .5605469 .37825523 .56013998 .3857422 .5593262 .39322917 .5585124 .40152995 .5572917 .41064454 .55566409L.4111328 .46289063Z"/>
<path id="font_33_31" d="M.09814453 .7294922H.51708987V.6464844H.19677735V.43164063H.48583985V.3486328H.19677735V0H.09814453V.7294922Z"/>
<path id="font_33_32" d="M.44384767 .34228517C.4650065 .33511354 .4855957 .3197937 .50561526 .29632569 .52563479 .27286784 .54573568 .24060567 .56591799 .19953919L.6660156 0H.5600586L.46679688 .18730164C.44270835 .23621114 .4193522 .26865135 .39672853 .2846222 .37410484 .30060325 .34326173 .30859376 .30419923 .30859376H.19677735V0H.09814453V.7294922H.32080079C.40413413 .7294922 .4663086 .71207687 .5073242 .6772461 .54833987 .64241537 .56884768 .58984377 .56884768 .51953127 .56884768 .4736328 .5581868 .43554688 .53686526 .40527345 .51554366 .375 .48453776 .3540039 .44384767 .34228517M.19677735 .6484375V.38964845H.32080079C.3683268 .38964845 .40421549 .40063478 .4284668 .42260743 .4527181 .44458009 .46484376 .47688804 .46484376 .51953127 .46484376 .5621745 .4527181 .59431967 .4284668 .6159668 .40421549 .63761398 .3683268 .6484375 .32080079 .6484375H.19677735Z"/>
<path id="font_33_33" d="M.4428711 .53125V.44628907C.41748048 .4593099 .39111329 .46907554 .36376954 .47558595 .33642579 .48209635 .30810548 .48535157 .2788086 .48535157 .23421224 .48535157 .20076497 .47850038 .1784668 .46479798 .15616863 .45109559 .14501953 .430542 .14501953 .4031372 .14501953 .38226319 .1529948 .36587016 .16894531 .35395814 .18489583 .3420461 .21695964 .33070884 .26513673 .3199463L.29589845 .31307984C.35970054 .2993876 .4050293 .2800649 .43188478 .2551117 .45874024 .23016866 .47216798 .19535828 .47216798 .15068054 .47216798 .09980774 .45206706 .05953471 .41186524 .02986145 .37166343 .00018819173 .31640626-.0146484379 .24609375-.0146484379 .21679688-.0146484379 .1862793-.01180013 .15454102-.0061035158 .122802738-.00040690104 .08935547 .0081380209 .05419922 .01953125V.11230469C.087402347 .095052089 .12011719 .08211263 .15234375 .07348633 .18457031 .06486002 .21647136 .060546876 .24804688 .060546876 .2903646 .060546876 .32291667 .06780497 .34570313 .08232117 .3684896 .096837367 .3798828 .11730448 .3798828 .14372254 .3798828 .16818746 .37166343 .1869456 .3552246 .19999695 .3387858 .2130483 .30273438 .22560628 .24707031 .2376709L.21582031 .24501038C.16015625 .25674949 .11995443 .274765 .095214847 .299057 .07047526 .32335917 .05810547 .3567098 .05810547 .3991089 .05810547 .4506429 .07633463 .49043275 .11279297 .5184784 .1492513 .54652407 .20100911 .5605469 .2680664 .5605469 .30126954 .5605469 .33251954 .55810549 .3618164 .55322268 .39111329 .54833987 .4181315 .5410156 .4428711 .53125Z"/>
</defs>
<g clip-path="url(#clip_1)">
<g clip-path="url(#clip_2)">
<g>
<g clip-path="url(#clip_3)">
<g clip-path="url(#clip_4)">
<path transform="matrix(.63695,0,0,-.63695,3.7990037,4.999626)" stroke-width=".7" stroke-linecap="square" stroke-linejoin="round" fill="none" stroke="#000000" d="M84.562-20.41H516.562"/>
</g>
<g clip-path="url(#clip_5)">
<path transform="matrix(.63695,0,0,-.63695,3.7990037,4.999626)" stroke-width=".7" stroke-linecap="square" stroke-linejoin="round" fill="none" stroke="#000000" d="M516.562-16.812V-20.41"/>
</g>
<g clip-path="url(#clip_6)">
<path transform="matrix(.63695,0,0,-.63695,3.7990037,4.999626)" stroke-width=".7" stroke-linecap="square" stroke-linejoin="round" fill="none" stroke="#000000" d="M489.562-18.609V-20.41"/>
</g>
<g clip-path="url(#clip_7)">
<path transform="matrix(.63695,0,0,-.63695,3.7990037,4.999626)" stroke-width=".7" stroke-linecap="square" stroke-linejoin="round" fill="none" stroke="#000000" d="M462.562-16.812V-20.41"/>
</g>
<g clip-path="url(#clip_8)">
<path transform="matrix(.63695,0,0,-.63695,3.7990037,4.999626)" stroke-width=".7" stroke-linecap="square" stroke-linejoin="round" fill="none" stroke="#000000" d="M435.562-18.609V-20.41"/>
</g>
<g clip-path="url(#clip_9)">
<path transform="matrix(.63695,0,0,-.63695,3.7990037,4.999626)" stroke-width=".7" stroke-linecap="square" stroke-linejoin="round" fill="none" stroke="#000000" d="M408.562-16.812V-20.41"/>
</g>
<g clip-path="url(#clip_10)">
<path transform="matrix(.63695,0,0,-.63695,3.7990037,4.999626)" stroke-width=".7" stroke-linecap="square" stroke-linejoin="round" fill="none" stroke="#000000" d="M381.562-18.609V-20.41"/>
</g>
<g clip-path="url(#clip_11)">
<path transform="matrix(.63695,0,0,-.63695,3.7990037,4.999626)" stroke-width=".7" stroke-linecap="square" stroke-linejoin="round" fill="none" stroke="#000000" d="M354.562-16.812V-20.41"/>
</g>
<g clip-path="url(#clip_12)">
<path transform="matrix(.63695,0,0,-.63695,3.7990037,4.999626)" stroke-width=".7" stroke-linecap="square" stroke-linejoin="round" fill="none" stroke="#000000" d="M327.562-18.609V-20.41"/>
</g>
<g clip-path="url(#clip_13)">
<path transform="matrix(.63695,0,0,-.63695,3.7990037,4.999626)" stroke-width=".7" stroke-linecap="square" stroke-linejoin="round" fill="none" stroke="#000000" d="M300.562-16.812V-20.41"/>
</g>
<g clip-path="url(#clip_14)">
<path transform="matrix(.63695,0,0,-.63695,3.7990037,4.999626)" stroke-width=".7" stroke-linecap="square" stroke-linejoin="round" fill="none" stroke="#000000" d="M273.562-18.609V-20.41"/>
</g>
<g clip-path="url(#clip_15)">
<path transform="matrix(.63695,0,0,-.63695,3.7990037,4.999626)" stroke-width=".7" stroke-linecap="square" stroke-linejoin="round" fill="none" stroke="#000000" d="M246.562-16.812V-20.41"/>
</g>
<g clip-path="url(#clip_16)">
<path transform="matrix(.63695,0,0,-.63695,3.7990037,4.999626)" stroke-width=".7" stroke-linecap="square" stroke-linejoin="round" fill="none" stroke="#000000" d="M219.562-18.609V-20.41"/>
</g>
<g clip-path="url(#clip_17)">
<path transform="matrix(.63695,0,0,-.63695,3.7990037,4.999626)" stroke-width=".7" stroke-linecap="square" stroke-linejoin="round" fill="none" stroke="#000000" d="M192.562-16.812V-20.41"/>
</g>
<g clip-path="url(#clip_18)">
<path transform="matrix(.63695,0,0,-.63695,3.7990037,4.999626)" stroke-width=".7" stroke-linecap="square" stroke-linejoin="round" fill="none" stroke="#000000" d="M165.562-18.609V-20.41"/>
</g>
<g clip-path="url(#clip_19)">
<path transform="matrix(.63695,0,0,-.63695,3.7990037,4.999626)" stroke-width=".7" stroke-linecap="square" stroke-linejoin="round" fill="none" stroke="#000000" d="M138.562-16.812V-20.41"/>
</g>
<g clip-path="url(#clip_20)">
<path transform="matrix(.63695,0,0,-.63695,3.7990037,4.999626)" stroke-width=".7" stroke-linecap="square" stroke-linejoin="round" fill="none" stroke="#000000" d="M111.562-18.609V-20.41"/>
</g>
<g clip-path="url(#clip_21)">
<path transform="matrix(.63695,0,0,-.63695,3.7990037,4.999626)" stroke-width=".7" stroke-linecap="square" stroke-linejoin="round" fill="none" stroke="#000000" d="M84.562-16.812V-20.41"/>
</g>
<g clip-path="url(#clip_22)">
<path transform="matrix(.63695,0,0,-.63695,3.7990037,4.999626)" stroke-width="1.417323" stroke-linecap="square" stroke-linejoin="round" fill="none" stroke="#000000" d="M116.012-20.41V-49.211H77.363"/>
</g>
<g clip-path="url(#clip_23)">
<path transform="matrix(.63695,0,0,-.63695,3.7990037,4.999626)" stroke-width="1.417323" stroke-linecap="square" stroke-linejoin="round" fill="none" stroke="#000000" d="M137.609-20.41V-63.609H77.363"/>
</g>
<g clip-path="url(#clip_24)">
<path transform="matrix(.63695,0,0,-.63695,3.7990037,4.999626)" stroke-width="1.417323" stroke-linecap="square" stroke-linejoin="round" fill="none" stroke="#000000" d="M280.234-20.41V-78.012H77.363"/>
</g>
<g clip-path="url(#clip_25)">
<path transform="matrix(.63695,0,0,-.63695,3.7990037,4.999626)" stroke-width="1.417323" stroke-linecap="square" stroke-linejoin="round" fill="none" stroke="#000000" d="M287.223-20.41V-92.41H77.363"/>
</g>
<g clip-path="url(#clip_26)">
<path transform="matrix(.63695,0,0,-.63695,3.7990037,4.999626)" stroke-width="1.417323" stroke-linecap="square" stroke-linejoin="round" fill="none" stroke="#000000" d="M302.152-20.41V-106.812H77.363"/>
</g>
<g clip-path="url(#clip_27)">
<path transform="matrix(.63695,0,0,-.63695,3.7990037,4.999626)" stroke-width="1.417323" stroke-linecap="square" stroke-linejoin="round" fill="none" stroke="#000000" d="M321.527-20.41V-92.41H523.766"/>
</g>
<g clip-path="url(#clip_28)">
<path transform="matrix(.63695,0,0,-.63695,3.7990037,4.999626)" stroke-width="1.417323" stroke-linecap="square" stroke-linejoin="round" fill="none" stroke="#000000" d="M371.719-20.41V-78.012H523.766"/>
</g>
<g clip-path="url(#clip_29)">
<path transform="matrix(.63695,0,0,-.63695,3.7990037,4.999626)" stroke-width="1.417323" stroke-linecap="square" stroke-linejoin="round" fill="none" stroke="#000000" d="M425.719-20.41V-63.609H523.766"/>
</g>
<g clip-path="url(#clip_30)">
<path transform="matrix(.63695,0,0,-.63695,3.7990037,4.999626)" stroke-width="1.417323" stroke-linecap="square" stroke-linejoin="round" fill="none" stroke="#000000" d="M462.883-20.41V-49.211H523.766"/>
</g>
<g clip-path="url(#clip_31)">
<path transform="matrix(.63695,0,0,-.63695,3.7990037,4.999626)" stroke-width="2.834646" stroke-linecap="square" stroke-linejoin="round" fill="none" stroke="#000000" d="M281.676-34.812H285.781"/>
</g>
<g clip-path="url(#clip_32)">
<path transform="matrix(.63695,0,0,-.63695,3.7990037,4.999626)" stroke-width="2.834646" stroke-linecap="square" stroke-linejoin="round" fill="none" stroke="#000000" d="M288.664-42.012H320.09"/>
</g>
<use data-text="1" xlink:href="#font_33_1" transform="matrix(9.554251,0,0,-9.554251,330.79917,12.090671)"/>
<use data-text="2" xlink:href="#font_33_2" transform="matrix(9.554251,0,0,-9.554251,296.40385,12.090671)"/>
<use data-text="3" xlink:href="#font_33_3" transform="matrix(9.554251,0,0,-9.554251,262.00856,12.090671)"/>
<use data-text="4" xlink:href="#font_33_4" transform="matrix(9.554251,0,0,-9.554251,227.61325,12.090671)"/>
<use data-text="5" xlink:href="#font_33_5" transform="matrix(9.554251,0,0,-9.554251,193.21796,12.090671)"/>
<use data-text="6" xlink:href="#font_33_6" transform="matrix(9.554251,0,0,-9.554251,158.82266,12.090671)"/>
<use data-text="7" xlink:href="#font_33_7" transform="matrix(9.554251,0,0,-9.554251,124.4273,12.090671)"/>
<use data-text="8" xlink:href="#font_33_8" transform="matrix(9.554251,0,0,-9.554251,90.032009,12.090671)"/>
<use data-text="9" xlink:href="#font_33_9" transform="matrix(9.554251,0,0,-9.554251,55.636709,12.090671)"/>
<use data-text="t" xlink:href="#font_33_10" transform="matrix(9.554251,0,0,-9.554251,15.507664,39.056554)"/>
<use data-text="-" xlink:href="#font_33_11" transform="matrix(9.554251,0,0,-9.554251,19.25293,39.056554)"/>
<use data-text="L" xlink:href="#font_33_12" transform="matrix(9.554251,0,0,-9.554251,22.692461,39.056554)"/>
<use data-text="e" xlink:href="#font_33_13" transform="matrix(9.554251,0,0,-9.554251,27.851758,39.056554)"/>
<use data-text="N" xlink:href="#font_33_14" transform="matrix(9.554251,0,0,-9.554251,33.727624,39.056554)"/>
<use data-text="e" xlink:href="#font_33_13" transform="matrix(9.554251,0,0,-9.554251,40.874204,39.056554)"/>
<use data-text="t" xlink:href="#font_33_10" transform="matrix(9.554251,0,0,-9.554251,46.750066,39.056554)"/>
<use data-text="M" xlink:href="#font_33_15" transform="matrix(9.554251,0,0,-9.554251,21.914956,48.228635)"/>
<use data-text="C" xlink:href="#font_33_16" transform="matrix(9.554251,0,0,-9.554251,30.150719,48.228635)"/>
<use data-text="N" xlink:href="#font_33_14" transform="matrix(9.554251,0,0,-9.554251,36.819589,48.228635)"/>
<use data-text="N" xlink:href="#font_33_14" transform="matrix(9.554251,0,0,-9.554251,43.966169,48.228635)"/>
<use data-text="M" xlink:href="#font_33_15" transform="matrix(9.554251,0,0,-9.554251,7.864264,57.400705)"/>
<use data-text="C" xlink:href="#font_33_16" transform="matrix(9.554251,0,0,-9.554251,16.100029,57.400705)"/>
<use data-text="D" xlink:href="#font_33_17" transform="matrix(9.554251,0,0,-9.554251,22.768897,57.400705)"/>
<use data-text="C" xlink:href="#font_33_16" transform="matrix(9.554251,0,0,-9.554251,30.125668,57.400705)"/>
<use data-text="N" xlink:href="#font_33_14" transform="matrix(9.554251,0,0,-9.554251,36.794538,57.400705)"/>
<use data-text="N" xlink:href="#font_33_14" transform="matrix(9.554251,0,0,-9.554251,43.941118,57.400705)"/>
<use data-text="T" xlink:href="#font_33_18" transform="matrix(9.554251,0,0,-9.554251,14.163553,67.52821)"/>
<use data-text="W" xlink:href="#font_33_19" transform="matrix(9.554251,0,0,-9.554251,19.991648,67.52821)"/>
<use data-text="I" xlink:href="#font_33_20" transform="matrix(9.554251,0,0,-9.554251,29.431246,67.52821)"/>
<use data-text="E" xlink:href="#font_33_21" transform="matrix(9.554251,0,0,-9.554251,32.240198,67.52821)"/>
<use data-text="S" xlink:href="#font_33_22" transform="matrix(9.554251,0,0,-9.554251,38.26893,67.52821)"/>
<use data-text="N" xlink:href="#font_33_14" transform="matrix(9.554251,0,0,-9.554251,44.326326,67.52821)"/>
<use data-text="T" xlink:href="#font_33_18" transform="matrix(9.554251,0,0,-9.554251,3.826952,77.655719)"/>
<use data-text="i" xlink:href="#font_33_23" transform="matrix(9.554251,0,0,-9.554251,9.358864,77.655719)"/>
<use data-text="m" xlink:href="#font_33_24" transform="matrix(9.554251,0,0,-9.554251,12.00539,77.655719)"/>
<use data-text="e" xlink:href="#font_33_13" transform="matrix(9.554251,0,0,-9.554251,21.31123,77.655719)"/>
<use data-text="-" xlink:href="#font_33_11" transform="matrix(9.554251,0,0,-9.554251,27.187094,77.655719)"/>
<use data-text="C" xlink:href="#font_33_16" transform="matrix(9.554251,0,0,-9.554251,30.626626,77.655719)"/>
<use data-text="N" xlink:href="#font_33_14" transform="matrix(9.554251,0,0,-9.554251,37.295495,77.655719)"/>
<use data-text="N" xlink:href="#font_33_14" transform="matrix(9.554251,0,0,-9.554251,44.442075,77.655719)"/>
<use data-text="M" xlink:href="#font_33_15" transform="matrix(9.554251,0,0,-9.554251,339.13023,68.483638)"/>
<use data-text="L" xlink:href="#font_33_12" transform="matrix(9.554251,0,0,-9.554251,347.36598,68.483638)"/>
<use data-text="P" xlink:href="#font_33_25" transform="matrix(9.554251,0,0,-9.554251,352.68769,68.483638)"/>
<use data-text="E" xlink:href="#font_33_21" transform="matrix(9.554251,0,0,-9.554251,339.13023,58.35613)"/>
<use data-text="n" xlink:href="#font_33_26" transform="matrix(9.554251,0,0,-9.554251,345.15898,58.35613)"/>
<use data-text="c" xlink:href="#font_33_27" transform="matrix(9.554251,0,0,-9.554251,351.20683,58.35613)"/>
<use data-text="o" xlink:href="#font_33_28" transform="matrix(9.554251,0,0,-9.554251,356.48075,58.35613)"/>
<use data-text="d" xlink:href="#font_33_29" transform="matrix(9.554251,0,0,-9.554251,362.31837,58.35613)"/>
<use data-text="e" xlink:href="#font_33_13" transform="matrix(9.554251,0,0,-9.554251,368.37577,58.35613)"/>
<use data-text="r" xlink:href="#font_33_30" transform="matrix(9.554251,0,0,-9.554251,374.25163,58.35613)"/>
<use data-text="F" xlink:href="#font_33_31" transform="matrix(9.554251,0,0,-9.554251,339.13023,48.228635)"/>
<use data-text="C" xlink:href="#font_33_16" transform="matrix(9.554251,0,0,-9.554251,344.6239,48.228635)"/>
<use data-text="N" xlink:href="#font_33_14" transform="matrix(9.554251,0,0,-9.554251,351.29277,48.228635)"/>
<use data-text="R" xlink:href="#font_33_32" transform="matrix(9.554251,0,0,-9.554251,339.13023,38.101129)"/>
<use data-text="e" xlink:href="#font_33_13" transform="matrix(9.554251,0,0,-9.554251,345.34049,38.101129)"/>
<use data-text="s" xlink:href="#font_33_33" transform="matrix(9.554251,0,0,-9.554251,351.21635,38.101129)"/>
<use data-text="N" xlink:href="#font_33_14" transform="matrix(9.554251,0,0,-9.554251,356.18455,38.101129)"/>
<use data-text="e" xlink:href="#font_33_13" transform="matrix(9.554251,0,0,-9.554251,363.3311,38.101129)"/>
<use data-text="t" xlink:href="#font_33_10" transform="matrix(9.554251,0,0,-9.554251,369.20695,38.101129)"/>
</g>
</g>
</g>
</g>
</svg>
